<?xml version="1.0" encoding="utf-8"?>
<!-- Generator: Adobe Illustrator 17.0.0, SVG Export Plug-In . SVG Version: 6.00 Build 0)  -->
<!DOCTYPE svg PUBLIC "-//W3C//DTD SVG 1.1//EN" "http://www.w3.org/Graphics/SVG/1.1/DTD/svg11.dtd">
<svg version="1.1" id="Layer_1" xmlns="http://www.w3.org/2000/svg" xmlns:xlink="http://www.w3.org/1999/xlink" x="0px" y="0px"
	 width="2800px" height="2800px" viewBox="0 0 2800 2800" enable-background="new 0 0 2800 2800" xml:space="preserve">
<g id="Layer_1_1_">
	<rect id="XMLID_751_" x="0" fill="#D6ECF9" width="2800" height="2800"/>
	<g id="XMLID_583_" opacity="0.8">
		<g id="XMLID_36_">
			<path id="XMLID_54_" fill="#FFFFFF" d="M1551.995,808.575c7.688,0,15.181,0.793,22.465,2.178
				c12.942-54.079,61.474-94.33,119.519-94.33c45.307,0,84.787,24.563,106.135,61.028c14.583-9.307,31.794-14.875,50.376-14.875
				c35.712,0,66.396,20.156,82.296,49.493c9.078-2.2,18.51-3.493,28.265-3.493c66.158,0,119.792,53.634,119.792,119.792
				c0,66.16-53.634,119.792-119.792,119.792c-18.112,0-35.217-4.136-50.607-11.331c-22.471,29.517-57.874,48.654-97.834,48.654
				c-22.874,0-44.214-6.356-62.563-17.232c-22.106,21.221-52.058,34.333-85.12,34.333c-42.764,0-80.401-21.841-102.445-54.954
				c-3.463,0.302-6.946,0.53-10.487,0.53c-66.16,0-119.792-53.632-119.792-119.792
				C1432.203,862.209,1485.836,808.575,1551.995,808.575z"/>
		</g>
	</g>
	<g id="XMLID_594_" opacity="0.8">
		<g id="XMLID_47_">
			<path id="XMLID_611_" fill="#FFFFFF" d="M1997.186,230.474c7.687,0,15.181,0.793,22.465,2.177
				c12.942-54.079,61.474-94.33,119.519-94.33c45.307,0,84.787,24.563,106.135,61.028c14.583-9.307,31.794-14.875,50.376-14.875
				c35.712,0,66.396,20.156,82.296,49.493c9.078-2.2,18.51-3.493,28.265-3.493c66.158,0,119.792,53.634,119.792,119.792
				c0,66.16-53.634,119.792-119.792,119.792c-18.112,0-35.217-4.136-50.607-11.331c-22.471,29.517-57.874,48.655-97.834,48.655
				c-22.874,0-44.214-6.356-62.562-17.232c-22.106,21.221-52.058,34.333-85.12,34.333c-42.764,0-80.401-21.841-102.446-54.954
				c-3.462,0.302-6.946,0.53-10.487,0.53c-66.16,0-119.792-53.632-119.792-119.792
				C1877.394,284.107,1931.027,230.474,1997.186,230.474z"/>
		</g>
	</g>
	<g id="XMLID_644_" opacity="0.8">
		<g id="XMLID_44_">
			<path id="XMLID_610_" fill="#FFFFFF" d="M895.471,1149.869c5.847,0,11.546,0.603,17.087,1.656
				c9.844-41.132,46.756-71.746,90.904-71.746c34.46,0,64.487,18.682,80.724,46.417c11.091-7.079,24.182-11.314,38.315-11.314
				c27.162,0,50.5,15.33,62.593,37.643c6.904-1.673,14.078-2.657,21.498-2.657c50.319,0,91.112,40.793,91.112,91.112
				c0,50.32-40.793,91.112-91.112,91.112c-13.775,0-26.786-3.146-38.491-8.618c-17.091,22.45-44.018,37.006-74.411,37.006
				c-17.398,0-33.629-4.835-47.584-13.106c-16.813,16.14-39.594,26.113-64.741,26.113c-32.526,0-61.152-16.612-77.918-41.797
				c-2.633,0.229-5.283,0.403-7.976,0.403c-50.32,0-91.112-40.792-91.112-91.112
				C804.359,1190.662,845.151,1149.869,895.471,1149.869z"/>
		</g>
	</g>
	<g id="XMLID_543_" opacity="0.8">
		<g id="XMLID_16_">
			<path id="XMLID_15_" fill="#FFFFFF" d="M384.68,314.787c7.688,0,15.181,0.793,22.465,2.177
				c12.942-54.079,61.474-94.33,119.519-94.33c45.307,0,84.787,24.563,106.135,61.028c14.583-9.307,31.794-14.875,50.376-14.875
				c35.712,0,66.396,20.155,82.296,49.493c9.078-2.2,18.51-3.493,28.265-3.493c66.158,0,119.792,53.634,119.792,119.792
				c0,66.16-53.634,119.792-119.792,119.792c-18.112,0-35.217-4.136-50.607-11.331c-22.471,29.517-57.874,48.654-97.834,48.654
				c-22.874,0-44.214-6.356-62.562-17.232c-22.106,21.221-52.058,34.333-85.12,34.333c-42.764,0-80.401-21.841-102.445-54.954
				c-3.462,0.302-6.946,0.53-10.487,0.53c-66.16,0-119.792-53.632-119.792-119.792C264.888,368.421,318.52,314.787,384.68,314.787z"
				/>
		</g>
	</g>
	<g id="XMLID_532_">
		<path id="XMLID_749_" fill="#AFB863" d="M86.893,1237.48c13.541,0,26.257,3.462,37.31,9.519
			c7.102-34.699,38.174-60.826,75.436-60.826c42.506,0,76.964,33.998,76.964,75.936c0,2.118-0.111,4.209-0.283,6.282
			c9.397-4.033,19.762-6.282,30.664-6.282c14.163,0,27.421,3.791,38.82,10.376c13.683-21.047,37.587-35.005,64.811-35.005
			c5.939,0,11.712,0.686,17.266,1.942c-0.017-0.648-0.05-1.291-0.05-1.942c0-41.938,34.458-75.936,76.964-75.936
			c37.342,0,68.464,26.242,75.476,61.052c9.268-3.903,19.468-6.067,30.182-6.067c24.707,0,46.678,11.5,60.761,29.356
			c14.082-17.856,36.054-29.356,60.761-29.356c8.154,0,16.007,1.261,23.383,3.579c-0.056-1.187-0.092-2.379-0.092-3.579
			c0-41.939,34.458-75.936,76.964-75.936s76.964,33.998,76.964,75.936c0,0.651-0.033,1.295-0.05,1.942
			c5.553-1.256,11.327-1.942,17.266-1.942c42.506,0,76.964,33.998,76.964,75.936c0,8.68-1.496,17.011-4.214,24.78
			c7.592-2.472,15.699-3.829,24.13-3.829c22.211,0,42.212,9.295,56.26,24.143c11.985-26.564,38.955-45.094,70.327-45.094
			c42.506,0,76.964,33.998,76.964,75.936c19.683,0,37.631,7.299,51.24,19.292c6.934-34.91,38.099-61.255,75.513-61.255
			c42.506,0,76.964,33.998,76.964,75.936c17.566,0,33.748,5.818,46.702,15.592c11.058-18.919,30.259-33.014,53.786-36.962
			c13.349-2.24,26.474-0.932,38.4,3.211c1.104-35.382,27.295-66.281,64.029-72.446c41.904-7.033,81.652,20.782,88.781,62.127
			c0.36,2.088,0.606,4.167,0.789,6.24c8.579-5.531,18.414-9.463,29.162-11.267c13.962-2.343,27.677-0.799,40.034,3.806
			c9.912-23.012,31.106-40.729,57.944-45.233c5.855-0.983,11.663-1.262,17.351-0.942c-0.126-0.635-0.268-1.264-0.379-1.907
			c-7.128-41.344,21.063-80.562,62.968-87.595c36.813-6.178,71.954,14.543,84.784,47.7c8.474-5.381,18.161-9.202,28.723-10.975
			c24.357-4.088,47.973,3.614,64.89,18.887c4.091-7.518,9.443-14.324,15.832-20.112c-12.186-11.002-20.904-25.926-23.888-43.237
			c-7.128-41.345,21.063-80.562,62.968-87.595c27.273-4.577,53.623,5.615,70.671,24.683c4.836-1.87,9.935-3.288,15.258-4.181
			c41.904-7.033,81.653,20.782,88.781,62.127c0.111,0.642,0.187,1.282,0.281,1.923c5.261-2.157,10.836-3.789,16.691-4.771
			c41.904-7.033,81.653,20.782,88.781,62.127c1.475,8.558,1.417,17.018,0.057,25.127c7.064-3.694,14.825-6.372,23.138-7.767
			c21.896-3.675,43.194,2.179,59.567,14.493c7.301-28.171,30.739-50.901,61.667-56.092c21.301-3.575,42.035,1.868,58.22,13.502
			c7.552-27.773,30.826-50.095,61.439-55.233c34.503-5.791,67.513,12.063,82.087,41.622v1530.845H9.929V1313.416
			C9.929,1271.478,44.387,1237.48,86.893,1237.48z"/>
	</g>
	<g id="XMLID_508_">
		<path id="XMLID_748_" fill="#CCD47C" d="M2713.107,1481.686c-13.541,0-26.257,3.462-37.31,9.519
			c-7.102-34.699-38.174-60.826-75.436-60.826c-42.506,0-76.964,33.998-76.964,75.936c0,2.118,0.111,4.209,0.283,6.282
			c-9.397-4.033-19.762-6.282-30.664-6.282c-14.163,0-27.421,3.791-38.82,10.376c-13.683-21.047-37.587-35.006-64.811-35.006
			c-5.939,0-11.713,0.686-17.266,1.942c0.017-0.648,0.05-1.291,0.05-1.942c0-41.938-34.458-75.936-76.964-75.936
			c-37.342,0-68.464,26.242-75.476,61.052c-9.268-3.902-19.468-6.067-30.182-6.067c-24.707,0-46.678,11.5-60.761,29.356
			c-14.082-17.856-36.054-29.356-60.761-29.356c-8.154,0-16.007,1.261-23.383,3.579c0.056-1.187,0.092-2.379,0.092-3.579
			c0-41.938-34.458-75.936-76.964-75.936s-76.964,33.998-76.964,75.936c0,0.651,0.033,1.295,0.05,1.942
			c-5.553-1.256-11.327-1.942-17.266-1.942c-42.506,0-76.964,33.998-76.964,75.936c0,8.681,1.496,17.012,4.214,24.781
			c-7.592-2.472-15.699-3.829-24.13-3.829c-22.212,0-42.212,9.295-56.26,24.143c-11.985-26.564-38.955-45.094-70.327-45.094
			c-42.506,0-76.964,33.998-76.964,75.936c-19.683,0-37.631,7.299-51.24,19.292c-6.934-34.91-38.099-61.255-75.513-61.255
			c-42.506,0-76.964,33.998-76.964,75.936c-17.566,0-33.748,5.818-46.702,15.592c-11.058-18.919-30.259-33.013-53.786-36.962
			c-13.349-2.24-26.474-0.932-38.4,3.211c-1.104-35.382-27.295-66.281-64.029-72.446c-41.904-7.033-81.652,20.782-88.781,62.127
			c-0.36,2.088-0.606,4.167-0.789,6.24c-8.579-5.531-18.414-9.463-29.162-11.267c-13.962-2.343-27.677-0.8-40.034,3.806
			c-9.912-23.012-31.106-40.729-57.944-45.233c-5.855-0.983-11.663-1.262-17.351-0.942c0.126-0.635,0.268-1.264,0.379-1.907
			c7.128-41.344-21.063-80.562-62.967-87.595c-36.813-6.178-71.954,14.543-84.784,47.7c-8.474-5.381-18.161-9.202-28.723-10.975
			c-24.357-4.088-47.972,3.614-64.89,18.887c-4.091-7.518-9.443-14.324-15.832-20.111c12.186-11.002,20.904-25.926,23.888-43.238
			c7.128-41.344-21.063-80.562-62.967-87.595c-27.273-4.577-53.623,5.615-70.671,24.683c-4.836-1.87-9.935-3.288-15.258-4.182
			c-41.904-7.033-81.653,20.782-88.781,62.127c-0.111,0.642-0.187,1.282-0.281,1.923c-5.261-2.157-10.836-3.789-16.691-4.771
			c-41.904-7.033-81.653,20.782-88.781,62.127c-1.475,8.557-1.417,17.018-0.057,25.127c-7.065-3.693-14.825-6.372-23.138-7.767
			c-21.896-3.675-43.194,2.179-59.567,14.493c-7.301-28.171-30.739-50.901-61.667-56.092c-21.301-3.575-42.035,1.868-58.221,13.502
			c-7.552-27.773-30.826-50.095-61.439-55.233c-34.503-5.791-67.513,12.063-82.088,41.621v1286.639H2790.07V1557.623
			C2790.071,1515.684,2755.613,1481.686,2713.107,1481.686z"/>
	</g>
	<g id="XMLID_51_">
		<g id="XMLID_52_">
			<path id="XMLID_747_" fill="#C6CC92" d="M86.893,1332.413c13.541,0,26.257,3.462,37.31,9.519
				c7.102-34.699,38.174-60.826,75.436-60.826c42.506,0,76.964,33.998,76.964,75.936c0,2.118-0.111,4.209-0.283,6.282
				c9.397-4.033,19.762-6.282,30.664-6.282c14.163,0,27.421,3.791,38.82,10.376c13.683-21.047,37.587-35.006,64.811-35.006
				c5.939,0,11.712,0.686,17.266,1.942c-0.017-0.648-0.05-1.291-0.05-1.942c0-41.938,34.458-75.936,76.964-75.936
				c37.342,0,68.464,26.242,75.476,61.052c9.268-3.903,19.468-6.067,30.182-6.067c24.707,0,46.678,11.5,60.761,29.356
				c14.082-17.856,36.054-29.356,60.761-29.356c8.154,0,16.007,1.261,23.383,3.579c-0.056-1.187-0.092-2.379-0.092-3.579
				c0-41.938,34.458-75.936,76.964-75.936s76.964,33.998,76.964,75.936c0,0.651-0.033,1.295-0.05,1.942
				c5.553-1.256,11.327-1.942,17.266-1.942c42.506,0,76.964,33.998,76.964,75.936c0,8.681-1.496,17.012-4.214,24.781
				c7.592-2.472,15.699-3.829,24.13-3.829c22.211,0,42.212,9.295,56.26,24.143c11.985-26.564,38.955-45.094,70.327-45.094
				c42.506,0,76.964,33.998,76.964,75.936c19.683,0,37.631,7.3,51.24,19.292c6.934-34.91,38.099-61.255,75.513-61.255
				c42.506,0,76.964,33.998,76.964,75.936c17.566,0,33.748,5.818,46.702,15.592c11.058-18.919,30.259-33.013,53.786-36.962
				c13.349-2.24,26.474-0.932,38.4,3.211c1.104-35.382,27.295-66.281,64.029-72.446c41.904-7.033,81.652,20.782,88.781,62.127
				c0.36,2.088,0.606,4.167,0.789,6.24c8.579-5.531,18.414-9.463,29.162-11.267c13.962-2.343,27.677-0.8,40.034,3.806
				c9.912-23.012,31.106-40.729,57.944-45.233c5.855-0.983,11.663-1.262,17.351-0.942c-0.126-0.635-0.268-1.264-0.379-1.907
				c-7.128-41.344,21.063-80.562,62.968-87.595c36.813-6.178,71.954,14.543,84.784,47.7c8.474-5.381,18.161-9.202,28.723-10.975
				c24.357-4.088,47.972,3.614,64.89,18.887c4.091-7.518,9.443-14.324,15.831-20.112c-12.186-11.002-20.903-25.926-23.888-43.237
				c-2.153-12.487-1.065-24.773,2.63-36.044c-16.358-12.267-37.61-18.095-59.464-14.427c-10.562,1.773-20.249,5.594-28.723,10.975
				c-12.83-33.157-47.971-53.878-84.784-47.7c-41.904,7.033-70.096,46.251-62.968,87.595c0.111,0.642,0.253,1.271,0.379,1.907
				c-5.688-0.32-11.496-0.041-17.351,0.942c-26.839,4.504-48.032,22.221-57.944,45.233c-12.356-4.605-26.071-6.149-40.034-3.806
				c-10.747,1.804-20.583,5.736-29.162,11.267c-0.183-2.073-0.429-4.153-0.789-6.24c-7.128-41.345-46.877-69.159-88.781-62.127
				c-36.734,6.165-62.926,37.064-64.029,72.446c-11.926-4.143-25.051-5.452-38.4-3.211c-23.526,3.948-42.728,18.043-53.786,36.962
				c-12.953-9.774-29.135-15.592-46.702-15.592c0-41.938-34.458-75.936-76.964-75.936c-37.414,0-68.58,26.344-75.513,61.255
				c-13.609-11.993-31.557-19.292-51.24-19.292c0-41.938-34.458-75.936-76.964-75.936c-31.373,0-58.342,18.53-70.327,45.094
				c-14.048-14.848-34.049-24.143-56.26-24.143c-8.432,0-16.538,1.357-24.13,3.829c2.718-7.769,4.214-16.1,4.214-24.78
				c0-41.939-34.458-75.936-76.964-75.936c-5.939,0-11.713,0.686-17.266,1.942c0.017-0.648,0.05-1.291,0.05-1.942
				c0-41.939-34.458-75.936-76.964-75.936s-76.964,33.998-76.964,75.936c0,1.2,0.036,2.393,0.092,3.579
				c-7.375-2.318-15.229-3.579-23.383-3.579c-24.707,0-46.679,11.5-60.761,29.356c-14.083-17.856-36.054-29.356-60.761-29.356
				c-10.714,0-20.914,2.164-30.182,6.067c-7.013-34.81-38.135-61.052-75.476-61.052c-42.506,0-76.964,33.998-76.964,75.936
				c0,0.651,0.033,1.295,0.05,1.942c-5.553-1.256-11.326-1.942-17.266-1.942c-27.224,0-51.128,13.959-64.811,35.005
				c-11.399-6.585-24.657-10.376-38.82-10.376c-10.902,0-21.266,2.249-30.664,6.282c0.173-2.074,0.283-4.165,0.283-6.282
				c0-41.938-34.458-75.936-76.964-75.936c-37.262,0-68.334,26.127-75.436,60.826c-11.054-6.057-23.769-9.519-37.31-9.519
				c-42.506,0-76.964,33.998-76.964,75.936v94.933C9.929,1366.411,44.387,1332.413,86.893,1332.413z"/>
		</g>
		<g id="XMLID_53_">
			<path id="XMLID_746_" fill="#C6CC92" d="M2707.983,1217.604c-30.613,5.138-53.888,27.46-61.439,55.233
				c-16.185-11.634-36.919-17.078-58.22-13.502c-30.928,5.191-54.366,27.921-61.667,56.092
				c-16.373-12.313-37.67-18.168-59.566-14.493c-8.313,1.395-16.073,4.074-23.138,7.767c1.359-8.109,1.418-16.569-0.057-25.127
				c-7.128-41.344-46.877-69.16-88.781-62.127c-5.855,0.983-11.43,2.614-16.691,4.771c-0.094-0.641-0.17-1.281-0.281-1.923
				c-7.128-41.345-46.876-69.16-88.781-62.127c-5.323,0.893-10.422,2.311-15.258,4.181c-17.048-19.068-43.398-29.26-70.671-24.683
				c-41.904,7.033-70.096,46.25-62.968,87.595c2.275,13.193,7.886,24.992,15.817,34.733c11.375-14.021,27.794-24.146,47.15-27.395
				c27.273-4.577,53.623,5.615,70.671,24.683c4.836-1.87,9.935-3.288,15.258-4.182c41.904-7.033,81.653,20.782,88.781,62.127
				c0.111,0.642,0.187,1.282,0.281,1.923c5.26-2.157,10.835-3.789,16.691-4.771c41.904-7.033,81.653,20.782,88.781,62.127
				c1.475,8.557,1.417,17.018,0.057,25.127c7.064-3.693,14.825-6.372,23.138-7.767c21.896-3.675,43.194,2.179,59.566,14.493
				c7.301-28.171,30.739-50.901,61.667-56.092c21.301-3.575,42.035,1.868,58.22,13.502c7.552-27.773,30.826-50.095,61.439-55.233
				c34.503-5.791,67.513,12.063,82.087,41.621v-94.933C2775.497,1229.666,2742.486,1211.813,2707.983,1217.604z"/>
		</g>
	</g>
	<g id="XMLID_48_">
		<path id="XMLID_607_" fill="#717C1E" d="M2800,2800H0V1313.416c0-47.347,38.98-85.866,86.893-85.866
			c10.582,0,21.085,1.923,30.92,5.62c12.184-33.608,44.838-56.926,81.826-56.926c45.372,0,82.733,34.542,86.569,78.411
			c6.758-1.645,13.705-2.474,20.776-2.474c12.367,0,24.576,2.616,35.775,7.618c16.427-20.34,41.189-32.248,67.856-32.248
			c2.603,0,5.215,0.118,7.823,0.353c4.834-42.856,41.719-76.29,86.357-76.29c37.466,0,70.425,23.868,82.251,58.137
			c7.578-2.095,15.413-3.153,23.407-3.153c23.021,0,44.605,8.807,60.761,24.492c16.156-15.684,37.74-24.492,60.761-24.492
			c4.645,0,9.263,0.364,13.819,1.087c4.494-43.207,41.544-77.023,86.436-77.023c44.638,0,81.522,33.433,86.356,76.29
			c2.608-0.235,5.22-0.353,7.824-0.353c47.913,0,86.893,38.519,86.893,85.866c0,3.923-0.269,7.825-0.806,11.686
			c3.572-0.442,7.175-0.664,10.794-0.664c19.472,0,38.405,6.564,53.608,18.322c15.847-24.21,43.246-39.274,72.979-39.274
			c44.691,0,81.609,33.511,86.373,76.439c12.918,1.387,25.317,5.615,36.319,12.353c12.75-32.492,44.75-54.819,81.026-54.819
			c44.687,0,81.604,33.504,86.372,76.429c12.258,1.294,23.955,5.12,34.553,11.297c13.284-17.472,32.794-29.315,54.883-33.022
			c10.424-1.75,21.093-1.594,31.406,0.417c6.318-35.149,34.553-63.532,71.023-69.652c44.722-7.509,87.424,20.373,98.636,62.991
			c6.393-2.747,13.113-4.719,20.095-5.891c12.188-2.046,24.662-1.488,36.547,1.588c12.747-22.771,35.138-38.602,61.43-43.016
			c2.551-0.428,5.13-0.742,7.725-0.942c-1.135-19.221,4.267-38.139,15.605-54.126c13.432-18.94,33.537-31.503,56.609-35.375
			c36.933-6.199,73.481,11.883,90.946,43.715c7.122-3.325,14.673-5.667,22.561-6.99c22.699-3.81,45.473,1.303,64.061,14.096
			c1.392-1.895,2.862-3.733,4.407-5.509c-10.308-11.776-17.085-25.97-19.775-41.57c-3.868-22.438,1.281-45.061,14.499-63.699
			c13.433-18.939,33.537-31.502,56.609-35.375c27.622-4.636,55.201,3.938,75.07,23.039c3.56-1.073,7.193-1.922,10.86-2.538
			c44.003-7.385,86.041,19.477,98.066,60.93c2.542-0.667,5.108-1.219,7.686-1.651c47.211-7.926,92.167,23.582,100.209,70.232
			c0.67,3.885,1.068,7.794,1.193,11.707c3.462-1.033,6.992-1.852,10.574-2.454c19.191-3.222,38.965,0.115,55.943,9.187
			c11.522-26.487,35.977-45.867,65.291-50.786c18.94-3.18,37.925-0.177,54.636,8.464c11.643-26.167,36.018-45.327,65.024-50.195
			c18.872-3.169,37.794-0.22,54.719,8.526c16.386,8.467,29.853,22.139,37.918,38.497l1.023,2.076V2800z M19.858,2780.142h2760.284
			V1261.627c-13.411-24.984-42.073-39.006-70.515-34.231c-25.74,4.32-46.74,23.179-53.502,48.046l-3.755,13.81l-11.621-8.353
			c-14.761-10.61-32.795-14.792-50.782-11.772c-26.073,4.375-47.151,23.527-53.698,48.791l-3.722,14.362l-11.858-8.918
			c-14.97-11.259-33.419-15.747-51.956-12.636c-7.058,1.185-13.848,3.464-20.181,6.775l-17.693,9.25l3.301-19.691
			c1.213-7.236,1.197-14.57-0.049-21.798c-6.191-35.907-40.899-60.14-77.353-54.021c-4.952,0.831-9.853,2.233-14.567,4.166
			l-11.757,4.821l-1.938-13.299c-0.043-0.316-0.084-0.632-0.139-0.948c-6.191-35.905-40.899-60.141-77.352-54.018
			c-4.551,0.764-9.032,1.992-13.32,3.65l-6.406,2.478l-4.578-5.121c-15.504-17.342-38.542-25.383-61.625-21.508
			c-17.825,2.991-33.344,12.679-43.698,27.279c-10.141,14.298-14.093,31.642-11.128,48.837c2.513,14.577,9.691,27.563,20.758,37.555
			l8.149,7.358l-8.137,7.371c-5.566,5.043-10.201,10.93-13.776,17.499l-6.023,11.067l-9.352-8.444
			c-15.411-13.913-36.037-19.914-56.593-16.464c-9.002,1.51-17.428,4.728-25.045,9.564l-10.215,6.486l-4.367-11.285
			c-11.346-29.322-42.42-46.771-73.88-41.49c-17.825,2.991-33.344,12.679-43.699,27.279c-10.141,14.298-14.093,31.642-11.128,48.837
			c0.055,0.316,0.122,0.631,0.188,0.947l0.145,0.707l2.503,12.572l-12.799-0.721c-5.101-0.285-10.198-0.01-15.15,0.82
			c-22.619,3.797-41.485,18.514-50.469,39.369l-3.737,8.675l-8.85-3.299c-11.108-4.141-23.184-5.288-34.922-3.319
			c-9.145,1.535-17.699,4.839-25.425,9.82l-13.826,8.914l-1.445-16.387c-0.178-2.02-0.401-3.795-0.683-5.424
			c-6.191-35.907-40.892-60.143-77.352-54.022c-31.329,5.257-54.774,31.737-55.749,62.963l-0.421,13.503l-12.761-4.434
			c-10.692-3.714-22.275-4.681-33.497-2.798c-19.764,3.317-36.843,15.046-46.857,32.181l-5.637,9.643l-8.917-6.728
			c-11.782-8.89-25.863-13.589-40.721-13.589h-9.929v-9.929c0-36.397-30.072-66.008-67.035-66.008
			c-31.983,0-59.645,22.399-65.775,53.26l-3.36,16.921l-12.943-11.406c-12.303-10.841-28.169-16.812-44.676-16.812h-9.929v-9.929
			c0-36.397-30.072-66.007-67.035-66.007c-26.466,0-50.519,15.406-61.277,39.248l-6.089,13.494l-10.174-10.753
			c-12.836-13.566-30.254-21.038-49.047-21.038c-7.164,0-14.248,1.124-21.056,3.341l-19.069,6.21l6.622-18.93
			c2.426-6.936,3.657-14.171,3.657-21.502c0-36.396-30.072-66.007-67.035-66.007c-5.024,0-10.096,0.571-15.075,1.697l-12.451,2.817
			l0.357-13.476c0.011-0.322,0.024-0.643,0.024-0.968c0-36.396-30.072-66.007-67.035-66.007s-67.035,29.611-67.035,66.007
			c0,0.949,0.026,1.966,0.08,3.11l0.673,14.206l-13.568-4.264c-6.593-2.072-13.459-3.123-20.406-3.123
			c-20.841,0-40.146,9.322-52.964,25.576l-7.796,9.885l-7.797-9.884c-12.82-16.254-32.124-25.576-52.965-25.576
			c-9.135,0-17.993,1.779-26.329,5.289l-11.189,4.711l-2.397-11.901c-6.197-30.759-33.845-53.084-65.743-53.084
			c-36.964,0-67.035,29.611-67.035,66.007c0,0.324,0.013,0.646,0.024,0.968l0.023,0.715l0.335,12.761l-12.451-2.817
			c-4.98-1.126-10.051-1.697-15.075-1.697c-22.959,0-44.075,11.398-56.487,30.489l-5.135,7.898l-8.157-4.712
			c-10.242-5.917-21.948-9.045-33.853-9.045c-9.28,0-18.279,1.843-26.747,5.478l-15.182,6.516l1.371-16.464
			c0.167-2.013,0.249-3.798,0.249-5.459c0-36.397-30.072-66.007-67.035-66.007c-31.802,0-59.437,22.243-65.709,52.888l-2.698,13.183
			l-11.801-6.467c-9.906-5.428-21.158-8.298-32.539-8.298c-36.963,0-67.035,29.611-67.035,66.007L19.858,2780.142L19.858,2780.142z"
			/>
	</g>
	<g id="XMLID_62_">
		<g id="XMLID_63_">
			<path id="XMLID_745_" fill="#DBE1A6" d="M2713.107,1481.686c-13.541,0-26.257,3.462-37.31,9.519
				c-7.102-34.699-38.174-60.826-75.436-60.826c-42.506,0-76.964,33.998-76.964,75.936c0,2.118,0.111,4.209,0.283,6.282
				c-9.397-4.033-19.762-6.282-30.664-6.282c-14.163,0-27.421,3.791-38.82,10.376c-13.683-21.047-37.587-35.006-64.811-35.006
				c-5.939,0-11.713,0.686-17.266,1.942c0.017-0.648,0.05-1.291,0.05-1.942c0-41.938-34.458-75.936-76.964-75.936
				c-37.342,0-68.464,26.242-75.476,61.052c-9.268-3.902-19.468-6.067-30.182-6.067c-24.707,0-46.678,11.5-60.761,29.356
				c-14.082-17.856-36.054-29.356-60.761-29.356c-8.154,0-16.007,1.261-23.383,3.579c0.056-1.187,0.092-2.379,0.092-3.579
				c0-41.938-34.458-75.936-76.964-75.936s-76.964,33.998-76.964,75.936c0,0.651,0.033,1.295,0.05,1.942
				c-5.553-1.256-11.327-1.942-17.266-1.942c-42.506,0-76.964,33.998-76.964,75.936c0,8.681,1.496,17.012,4.214,24.781
				c-7.592-2.472-15.699-3.829-24.13-3.829c-22.212,0-42.212,9.295-56.26,24.143c-11.985-26.564-38.955-45.094-70.327-45.094
				c-42.506,0-76.964,33.998-76.964,75.936c-19.683,0-37.631,7.299-51.24,19.292c-6.934-34.91-38.099-61.255-75.513-61.255
				c-42.506,0-76.964,33.998-76.964,75.936c-17.566,0-33.748,5.818-46.702,15.592c-11.058-18.919-30.259-33.013-53.786-36.962
				c-13.349-2.24-26.474-0.932-38.4,3.211c-1.104-35.382-27.295-66.281-64.029-72.446c-41.904-7.033-81.652,20.782-88.781,62.127
				c-0.36,2.088-0.606,4.167-0.789,6.24c-8.579-5.531-18.414-9.463-29.162-11.267c-13.962-2.343-27.677-0.8-40.034,3.806
				c-9.912-23.012-31.106-40.729-57.944-45.233c-5.855-0.983-11.663-1.262-17.351-0.942c0.126-0.635,0.268-1.264,0.379-1.907
				c7.128-41.344-21.063-80.562-62.967-87.595c-36.813-6.178-71.954,14.543-84.784,47.7c-8.474-5.381-18.161-9.202-28.723-10.975
				c-21.854-3.668-43.106,2.16-59.464,14.427c3.695,11.271,4.783,23.557,2.63,36.044c-2.985,17.312-11.702,32.235-23.888,43.238
				c6.389,5.787,11.74,12.593,15.832,20.112c16.918-15.273,40.533-22.975,64.89-18.887c10.562,1.773,20.249,5.594,28.723,10.975
				c12.83-33.157,47.971-53.878,84.784-47.699c41.904,7.033,70.096,46.251,62.967,87.595c-0.111,0.642-0.253,1.271-0.379,1.907
				c5.688-0.32,11.496-0.041,17.351,0.942c26.839,4.505,48.032,22.221,57.944,45.233c12.357-4.605,26.071-6.149,40.034-3.806
				c10.747,1.804,20.583,5.736,29.162,11.267c0.183-2.073,0.429-4.153,0.789-6.24c7.128-41.345,46.877-69.16,88.781-62.127
				c36.734,6.165,62.926,37.064,64.029,72.446c11.926-4.143,25.051-5.452,38.4-3.211c23.526,3.948,42.728,18.043,53.786,36.962
				c12.953-9.774,29.135-15.592,46.702-15.592c0-41.938,34.458-75.936,76.964-75.936c37.414,0,68.58,26.344,75.513,61.255
				c13.609-11.993,31.557-19.292,51.24-19.292c0-41.938,34.458-75.936,76.964-75.936c31.373,0,58.342,18.531,70.327,45.094
				c14.048-14.848,34.049-24.143,56.26-24.143c8.432,0,16.538,1.357,24.13,3.829c-2.718-7.769-4.214-16.1-4.214-24.781
				c0-41.938,34.458-75.936,76.964-75.936c5.939,0,11.713,0.686,17.266,1.942c-0.017-0.648-0.05-1.291-0.05-1.942
				c0-41.939,34.458-75.936,76.964-75.936s76.964,33.998,76.964,75.936c0,1.2-0.036,2.392-0.092,3.579
				c7.376-2.318,15.229-3.579,23.383-3.579c24.707,0,46.679,11.5,60.761,29.356c14.083-17.856,36.054-29.356,60.761-29.356
				c10.714,0,20.914,2.164,30.182,6.067c7.013-34.81,38.135-61.052,75.476-61.052c42.506,0,76.964,33.998,76.964,75.936
				c0,0.651-0.033,1.295-0.05,1.942c5.553-1.256,11.326-1.942,17.266-1.942c27.224,0,51.128,13.959,64.811,35.006
				c11.399-6.585,24.657-10.376,38.82-10.376c10.902,0,21.266,2.249,30.664,6.282c-0.173-2.074-0.283-4.164-0.283-6.282
				c0-41.938,34.458-75.936,76.964-75.936c37.262,0,68.334,26.128,75.436,60.826c11.053-6.057,23.769-9.519,37.31-9.519
				c42.506,0,76.964,33.998,76.964,75.936v-94.933C2790.071,1515.684,2755.613,1481.686,2713.107,1481.686z"/>
		</g>
		<g id="XMLID_64_">
			<path id="XMLID_744_" fill="#DBE1A6" d="M92.017,1556.743c30.613,5.138,53.888,27.46,61.439,55.233
				c16.185-11.634,36.919-17.077,58.221-13.502c30.928,5.191,54.366,27.921,61.667,56.092c16.373-12.313,37.67-18.168,59.567-14.493
				c8.313,1.395,16.073,4.074,23.138,7.767c-1.359-8.109-1.418-16.569,0.057-25.127c7.128-41.345,46.876-69.16,88.781-62.127
				c5.855,0.983,11.43,2.614,16.691,4.772c0.094-0.641,0.17-1.281,0.281-1.923c7.128-41.345,46.876-69.16,88.781-62.127
				c5.323,0.893,10.422,2.311,15.258,4.182c17.048-19.068,43.398-29.26,70.671-24.683c19.357,3.249,35.775,13.374,47.15,27.395
				c7.931-9.741,13.542-21.54,15.817-34.733c7.128-41.344-21.063-80.562-62.967-87.595c-27.273-4.577-53.623,5.615-70.671,24.683
				c-4.836-1.87-9.935-3.288-15.258-4.182c-41.904-7.033-81.653,20.782-88.781,62.127c-0.111,0.642-0.187,1.282-0.281,1.923
				c-5.261-2.157-10.836-3.789-16.691-4.771c-41.904-7.033-81.653,20.782-88.781,62.127c-1.475,8.557-1.417,17.018-0.057,25.127
				c-7.065-3.693-14.825-6.372-23.138-7.767c-21.896-3.675-43.194,2.179-59.567,14.493c-7.301-28.171-30.739-50.901-61.667-56.092
				c-21.301-3.575-42.035,1.868-58.221,13.502c-7.552-27.773-30.826-50.095-61.439-55.233
				c-34.503-5.791-67.513,12.063-82.088,41.621v94.933C24.503,1568.806,57.514,1550.952,92.017,1556.743z"/>
		</g>
	</g>
	<g id="XMLID_49_">
		<path id="XMLID_604_" fill="#869603" d="M2800,2800H0V1501.117l1.023-2.076c8.065-16.358,21.532-30.029,37.918-38.497
			c16.924-8.745,35.845-11.693,54.718-8.526c29.006,4.868,53.38,24.028,65.024,50.195c16.711-8.643,35.698-11.644,54.636-8.465
			c29.314,4.92,53.768,24.299,65.29,50.786c16.979-9.072,36.75-12.408,55.943-9.187c3.583,0.602,7.113,1.422,10.574,2.454
			c0.125-3.914,0.523-7.823,1.193-11.708c8.043-46.65,53-78.15,100.209-70.233c2.578,0.433,5.144,0.985,7.686,1.652
			c12.023-41.45,54.063-68.316,98.066-60.929c3.667,0.615,7.299,1.464,10.86,2.537c19.869-19.1,47.45-27.673,75.069-23.039
			c23.073,3.872,43.176,16.436,56.609,35.376c13.219,18.638,18.368,41.26,14.499,63.699c-2.689,15.6-9.467,29.793-19.775,41.569
			c1.545,1.777,3.015,3.614,4.407,5.51c18.588-12.793,41.365-17.904,64.06-14.097c7.888,1.325,15.44,3.667,22.561,6.991
			c17.465-31.832,54.012-49.914,90.946-43.715c23.073,3.872,43.177,16.435,56.609,35.375c11.339,15.988,16.74,34.906,15.606,54.126
			c2.595,0.2,5.174,0.514,7.726,0.943c26.292,4.412,48.682,20.245,61.43,43.015c11.885-3.077,24.359-3.635,36.546-1.589
			c6.982,1.172,13.703,3.145,20.096,5.891c11.211-42.616,53.906-70.497,98.636-62.991c36.469,6.12,64.705,34.504,71.023,69.652
			c10.314-2.012,20.982-2.167,31.406-0.418c22.089,3.708,41.599,15.551,54.882,33.023c10.598-6.178,22.296-10.004,34.553-11.297
			c4.768-42.925,41.685-76.429,86.372-76.429c36.276,0,68.276,22.326,81.026,54.818c11.002-6.737,23.401-10.966,36.319-12.353
			c4.764-42.929,41.683-76.439,86.373-76.439c29.733,0,57.132,15.063,72.979,39.274c15.203-11.758,34.136-18.322,53.608-18.322
			c3.618,0,7.221,0.222,10.793,0.664c-0.537-3.862-0.806-7.763-0.806-11.686c0-47.346,38.98-85.865,86.893-85.865
			c2.604,0,5.216,0.118,7.824,0.353c4.834-42.856,41.719-76.29,86.356-76.29c44.892,0,81.942,33.816,86.436,77.024
			c4.556-0.723,9.175-1.087,13.819-1.087c23.021,0,44.605,8.807,60.761,24.491c16.156-15.684,37.74-24.491,60.761-24.491
			c7.994,0,15.83,1.058,23.407,3.153c11.826-34.27,44.785-58.138,82.251-58.138c44.638,0,81.522,33.433,86.356,76.289
			c2.608-0.235,5.22-0.353,7.823-0.353c26.669,0,51.43,11.906,67.856,32.249c11.199-5.003,23.408-7.619,35.775-7.619
			c7.07,0,14.017,0.829,20.776,2.475c3.835-43.869,41.197-78.411,86.569-78.411c36.988,0,69.642,23.318,81.826,56.926
			c9.835-3.697,20.337-5.62,30.92-5.62c47.913,0,86.893,38.519,86.893,85.866V2800H2800z M19.858,2780.142h2760.284V1557.623
			c0-36.397-30.072-66.008-67.035-66.008c-11.381,0-22.633,2.87-32.539,8.298l-11.801,6.468l-2.698-13.184
			c-6.272-30.645-33.906-52.888-65.708-52.888c-36.963,0-67.035,29.611-67.035,66.007c0,1.661,0.082,3.447,0.249,5.459l1.371,16.463
			l-15.181-6.515c-8.469-3.635-17.469-5.478-26.748-5.478c-11.904,0-23.61,3.128-33.853,9.044l-8.157,4.712l-5.134-7.898
			c-12.412-19.091-33.529-30.489-56.487-30.489c-5.024,0-10.096,0.572-15.074,1.698l-12.452,2.818l0.357-13.477
			c0.011-0.322,0.024-0.643,0.024-0.967c0-36.396-30.071-66.007-67.035-66.007c-31.898,0-59.546,22.325-65.743,53.084l-2.397,11.901
			l-11.189-4.711c-8.334-3.51-17.192-5.289-26.329-5.289c-20.841,0-40.146,9.322-52.965,25.575l-7.797,9.885l-7.796-9.885
			c-12.818-16.253-32.123-25.575-52.964-25.575c-6.948,0-13.814,1.051-20.406,3.122l-13.568,4.264l0.673-14.207
			c0.054-1.143,0.08-2.16,0.08-3.109c0-36.397-30.072-66.008-67.035-66.008s-67.035,29.611-67.035,66.008
			c0,0.324,0.013,0.645,0.024,0.967l0.022,0.715l0.334,12.762l-12.451-2.818c-4.977-1.126-10.049-1.697-15.074-1.697
			c-36.963,0-67.035,29.611-67.035,66.007c0,7.331,1.23,14.565,3.657,21.502l6.622,18.928l-19.068-6.209
			c-6.809-2.217-13.893-3.341-21.056-3.341c-18.793,0-36.212,7.472-49.047,21.038l-10.174,10.754l-6.089-13.494
			c-10.758-23.843-34.811-39.249-61.277-39.249c-36.963,0-67.035,29.611-67.035,66.007v9.929h-9.929
			c-16.507,0-32.373,5.971-44.676,16.812l-12.943,11.406l-3.36-16.921c-6.13-30.861-33.791-53.26-65.775-53.26
			c-36.963,0-67.035,29.61-67.035,66.007v9.929h-9.929c-14.858,0-28.939,4.699-40.721,13.589l-8.916,6.728l-5.636-9.643
			c-10.015-17.134-27.094-28.864-46.857-32.18c-11.222-1.884-22.806-0.916-33.498,2.798l-12.761,4.433l-0.421-13.502
			c-0.974-31.226-24.42-57.706-55.748-62.963c-36.462-6.118-71.162,18.114-77.353,54.021c-0.281,1.631-0.505,3.405-0.683,5.426
			l-1.445,16.387l-13.826-8.914c-7.726-4.98-16.28-8.285-25.425-9.819c-11.737-1.97-23.812-0.823-34.923,3.318l-8.85,3.299
			l-3.736-8.674c-8.983-20.856-27.849-35.573-50.469-39.369c-4.953-0.831-10.048-1.107-15.15-0.821l-12.799,0.72l2.648-13.28
			c0.065-0.316,0.133-0.631,0.189-0.951c2.964-17.191-0.989-34.535-11.129-48.833c-10.354-14.6-25.873-24.287-43.699-27.279
			c-31.461-5.278-62.534,12.169-73.88,41.491l-4.367,11.285l-10.215-6.486c-7.616-4.835-16.043-8.054-25.045-9.565
			c-20.552-3.451-41.181,2.551-56.593,16.465l-9.352,8.443l-6.023-11.067c-3.575-6.569-8.21-12.456-13.776-17.498l-8.137-7.371
			l8.149-7.358c11.066-9.992,18.244-22.978,20.758-37.555c2.965-17.195-0.988-34.539-11.128-48.837
			c-10.354-14.6-25.873-24.287-43.698-27.279c-23.083-3.872-46.12,4.167-61.625,21.51l-4.578,5.12l-6.406-2.478
			c-4.288-1.658-8.769-2.887-13.319-3.65c-36.467-6.123-71.163,18.115-77.353,54.021c-0.055,0.321-0.097,0.636-0.14,0.952
			l-0.101,0.719l-1.836,12.574l-11.757-4.822c-4.714-1.933-9.615-3.335-14.567-4.165c-36.462-6.123-71.162,18.115-77.353,54.021
			c-1.246,7.228-1.262,14.562-0.049,21.798l3.301,19.691l-17.694-9.251c-6.331-3.31-13.121-5.589-20.181-6.774
			c-18.531-3.11-36.984,1.376-51.955,12.636l-11.858,8.917l-3.722-14.362c-6.547-25.263-27.625-44.415-53.698-48.791
			c-17.988-3.019-36.022,1.163-50.782,11.773l-11.621,8.353l-3.755-13.81c-6.762-24.867-27.763-43.726-53.502-48.046
			c-28.442-4.772-57.105,9.247-70.515,34.232v1274.308H19.858z"/>
	</g>
	<g id="XMLID_181_">
		<path id="XMLID_743_" fill="#F0D18A" d="M1400,388.397c-10.968,0-19.858,8.891-19.858,19.858v322.518
			c0,10.968,8.891,19.858,19.858,19.858s19.858-8.891,19.858-19.858V408.255C1419.858,397.287,1410.968,388.397,1400,388.397z"/>
	</g>
	<g id="XMLID_208_">
		<path id="XMLID_742_" fill="#F8E8C6" d="M1419.858,730.773V408.255c0-10.968-8.891-19.858-19.858-19.858v362.235
			C1410.968,750.631,1419.858,741.741,1419.858,730.773z"/>
	</g>
	<g id="XMLID_236_">
		<path id="XMLID_495_" fill="#5E3C0B" d="M1400,760.56c-16.425,0-29.787-13.363-29.787-29.787V408.255
			c0-16.425,13.363-29.787,29.787-29.787s29.787,13.363,29.787,29.787v322.518C1429.787,747.198,1416.425,760.56,1400,760.56z
			 M1400,398.326c-5.475,0-9.929,4.454-9.929,9.929v322.518c0,5.475,4.454,9.929,9.929,9.929s9.929-4.454,9.929-9.929V408.255
			C1409.929,402.78,1405.475,398.326,1400,398.326z"/>
	</g>
	<g id="XMLID_30_">
		<rect id="XMLID_741_" x="9.929" y="1814.599" fill="#99691A" width="2780.142" height="120.578"/>
	</g>
	<g id="XMLID_134_">
		<rect id="XMLID_740_" x="9.929" y="1874.888" fill="#B69054" width="2780.142" height="60.289"/>
	</g>
	<g id="XMLID_164_">
		<path id="XMLID_436_" fill="#5E3C0B" d="M2800,1945.106H0V1804.67h2800V1945.106z M19.858,1925.248h2760.284v-100.72H19.858
			V1925.248z"/>
	</g>
	<g id="XMLID_369_">
		<rect id="XMLID_739_" x="9.929" y="1935.177" fill="#CBA561" width="2780.142" height="583.713"/>
	</g>
	<g id="XMLID_274_">
		<rect id="XMLID_738_" x="9.929" y="2227.034" fill="#E0C8A1" width="2780.142" height="291.856"/>
	</g>
	<g id="XMLID_273_">
		<rect id="XMLID_435_" x="2572.624" y="2055.319" fill="#5E3C0B" width="19.858" height="463.571"/>
	</g>
	<g id="XMLID_272_">
		<rect id="XMLID_434_" x="2661.986" y="2456.35" fill="#5E3C0B" width="19.858" height="62.541"/>
	</g>
	<g id="XMLID_271_">
		<rect id="XMLID_433_" x="2719.575" y="2331.268" fill="#5E3C0B" width="19.858" height="187.622"/>
	</g>
	<g id="XMLID_275_">
		<path id="XMLID_417_" fill="#5E3C0B" d="M2800,2528.819H0v-603.571h2800V2528.819z M19.858,2508.961h2760.284v-563.855H19.858
			V2508.961z"/>
	</g>
	<g id="XMLID_257_">
		<rect id="XMLID_234_" x="207.518" y="2055.319" fill="#5E3C0B" width="19.858" height="463.571"/>
	</g>
	<g id="XMLID_263_">
		<rect id="XMLID_233_" x="118.156" y="2456.35" fill="#5E3C0B" width="19.858" height="62.541"/>
	</g>
	<g id="XMLID_259_">
		<rect id="XMLID_232_" x="60.567" y="2331.268" fill="#5E3C0B" width="19.858" height="187.622"/>
	</g>
	<g id="XMLID_774_">
		<rect id="XMLID_737_" x="9.929" y="2518.89" fill="#CCD47C" width="2780.142" height="271.181"/>
	</g>
	<g id="XMLID_35_">
		<rect id="XMLID_736_" x="9.929" y="2654.48" fill="#DBE1A6" width="2780.142" height="135.59"/>
	</g>
	<g id="XMLID_32_">
		<rect id="XMLID_735_" x="455.014" y="415.715" fill="#D9BD93" width="1889.971" height="83.388"/>
	</g>
	<g id="XMLID_67_">
		<rect id="XMLID_734_" x="455.014" y="457.409" fill="#EDDDC7" width="1889.971" height="41.694"/>
	</g>
	<g id="XMLID_50_">
		<path id="XMLID_229_" fill="#5E3C0B" d="M2354.915,509.031H445.085V405.786h1909.829L2354.915,509.031L2354.915,509.031z
			 M464.944,489.173h1870.113v-63.529H464.944V489.173z"/>
	</g>
	<g id="XMLID_317_">
		<rect id="XMLID_733_" x="587.348" y="1935.177" fill="#D9BD93" width="1625.305" height="83.387"/>
	</g>
	<g id="XMLID_316_">
		<rect id="XMLID_732_" x="544.445" y="2018.565" fill="#99691A" width="1711.11" height="83.388"/>
	</g>
	<g id="XMLID_315_">
		<rect id="XMLID_731_" x="501.543" y="2101.952" fill="#D9BD93" width="1796.915" height="83.387"/>
	</g>
	<g id="XMLID_314_">
		<rect id="XMLID_730_" x="458.64" y="2185.34" fill="#99691A" width="1882.719" height="83.388"/>
	</g>
	<g id="XMLID_313_">
		<rect id="XMLID_729_" x="415.738" y="2268.727" fill="#D9BD93" width="1968.524" height="83.387"/>
	</g>
	<g id="XMLID_312_">
		<rect id="XMLID_149_" x="372.835" y="2352.115" fill="#99691A" width="2054.329" height="83.388"/>
	</g>
	<g id="XMLID_33_">
		<rect id="XMLID_148_" x="587.348" y="499.102" fill="#CBA561" width="83.387" height="1315.496"/>
	</g>
	<g id="XMLID_65_">
		<rect id="XMLID_146_" x="587.348" y="499.102" fill="#E0C8A1" width="41.694" height="1315.496"/>
	</g>
	<g id="XMLID_66_">
		<path id="XMLID_226_" fill="#5E3C0B" d="M680.664,1824.528H577.419V489.173h103.245V1824.528z M597.277,1804.67h63.529V509.031
			h-63.529V1804.67z"/>
	</g>
	<g id="XMLID_31_">
		<g id="XMLID_37_">
			<polygon id="XMLID_145_" fill="#99691A" points="962.847,499.103 844.919,499.103 670.735,673.287 670.735,791.214 			"/>
		</g>
	</g>
	<g id="XMLID_75_">
		<polygon id="XMLID_144_" fill="#B69054" points="902.14,499.103 670.735,730.507 670.735,791.214 962.847,499.103 		"/>
	</g>
	<g id="XMLID_70_">
		<g id="XMLID_71_">
			<path id="XMLID_223_" fill="#5E3C0B" d="M660.806,815.185V669.174l180.001-180.001h146.011L660.806,815.185z M680.664,677.4
				v89.844l258.212-258.212h-89.844L680.664,677.4z"/>
		</g>
	</g>
	<g id="XMLID_77_">
		<g id="XMLID_78_">
			<polygon id="XMLID_143_" fill="#99691A" points="1837.153,499.103 1955.081,499.103 2129.265,673.287 2129.265,791.214 			"/>
		</g>
	</g>
	<g id="XMLID_76_">
		<polygon id="XMLID_142_" fill="#B69054" points="1897.86,499.103 2129.265,730.507 2129.265,791.214 1837.153,499.103 		"/>
	</g>
	<g id="XMLID_73_">
		<g id="XMLID_74_">
			<path id="XMLID_220_" fill="#5E3C0B" d="M2139.194,815.185l-326.012-326.012h146.011l180.001,180.001V815.185z M1861.124,509.031
				l258.212,258.212V677.4l-168.368-168.368h-89.844L1861.124,509.031L1861.124,509.031z"/>
		</g>
	</g>
	<g id="XMLID_38_">
		<rect id="XMLID_141_" x="2129.265" y="499.102" fill="#CBA561" width="83.387" height="1315.496"/>
	</g>
	<g id="XMLID_69_">
		<rect id="XMLID_140_" x="2170.958" y="499.102" fill="#E0C8A1" width="41.694" height="1315.496"/>
	</g>
	<g id="XMLID_68_">
		<path id="XMLID_217_" fill="#5E3C0B" d="M2222.581,1824.528h-103.245V489.173h103.245V1824.528z M2139.194,1804.67h63.529V509.031
			h-63.529V1804.67z"/>
	</g>
	<g id="XMLID_115_">
		<g id="XMLID_176_">
			<path id="XMLID_139_" fill="#F0D18A" d="M1340.426,388.397c-10.968,0-19.858,8.891-19.858,19.858v98.308
				c0,10.968,8.891,19.858,19.858,19.858s19.858-8.891,19.858-19.858v-98.308C1360.284,397.287,1351.393,388.397,1340.426,388.397z"
				/>
		</g>
		<g id="XMLID_173_">
			<path id="XMLID_138_" fill="#F0D18A" d="M1380.142,388.397c-10.968,0-19.858,8.891-19.858,19.858v98.308
				c0,10.968,8.891,19.858,19.858,19.858S1400,517.53,1400,506.563v-98.308C1400,397.287,1391.109,388.397,1380.142,388.397z"/>
		</g>
		<g id="XMLID_174_">
			<path id="XMLID_137_" fill="#F0D18A" d="M1419.858,388.397c-10.968,0-19.858,8.891-19.858,19.858v98.308
				c0,10.968,8.891,19.858,19.858,19.858s19.858-8.891,19.858-19.858v-98.308C1439.716,397.287,1430.826,388.397,1419.858,388.397z"
				/>
		</g>
		<g id="XMLID_175_">
			<path id="XMLID_136_" fill="#F0D18A" d="M1459.574,388.397c-10.968,0-19.858,8.891-19.858,19.858v98.308
				c0,10.968,8.891,19.858,19.858,19.858s19.858-8.891,19.858-19.858v-98.308C1479.433,397.287,1470.542,388.397,1459.574,388.397z"
				/>
		</g>
	</g>
	<g id="XMLID_135_">
		<path id="XMLID_211_" fill="#869603" d="M2800,2800H0v-291.039h2800V2800z M19.858,2780.142h2760.284v-251.323H19.858V2780.142z"
			/>
	</g>
	<g id="XMLID_311_">
		<rect id="XMLID_131_" x="329.933" y="2435.502" fill="#D9BD93" width="2140.134" height="83.387"/>
	</g>
	<g id="XMLID_244_">
		<rect id="XMLID_130_" x="587.348" y="1976.871" fill="#EDDDC7" width="1625.305" height="41.694"/>
	</g>
	<g id="XMLID_243_">
		<rect id="XMLID_129_" x="544.445" y="2060.259" fill="#B69054" width="1711.11" height="41.694"/>
	</g>
	<g id="XMLID_242_">
		<rect id="XMLID_128_" x="501.543" y="2143.646" fill="#EDDDC7" width="1796.915" height="41.694"/>
	</g>
	<g id="XMLID_241_">
		<rect id="XMLID_127_" x="458.64" y="2227.034" fill="#B69054" width="1882.719" height="41.694"/>
	</g>
	<g id="XMLID_240_">
		<rect id="XMLID_126_" x="415.738" y="2310.421" fill="#EDDDC7" width="1968.524" height="41.694"/>
	</g>
	<g id="XMLID_239_">
		<rect id="XMLID_125_" x="372.835" y="2393.809" fill="#B69054" width="2054.329" height="41.694"/>
	</g>
	<g id="XMLID_238_">
		<rect id="XMLID_124_" x="329.933" y="2477.196" fill="#EDDDC7" width="2140.134" height="41.694"/>
	</g>
	<g id="XMLID_200_">
		<path id="XMLID_123_" fill="#F8E8C6" d="M1400,506.563c0,10.968,8.891,19.858,19.858,19.858s19.858-8.891,19.858-19.858
			c0,10.968,8.891,19.858,19.858,19.858s19.858-8.891,19.858-19.858v-98.308c0-8.187-4.956-15.211-12.029-18.25l-134.807,134.807
			c2.403,1.032,5.048,1.608,7.829,1.608c10.968,0,19.858-8.891,19.858-19.858c0,10.968,8.891,19.858,19.858,19.858
			S1400,517.53,1400,506.563z"/>
	</g>
	<g id="XMLID_165_">
		<g id="XMLID_204_">
			<path id="XMLID_199_" fill="#5E3C0B" d="M1340.426,536.349c-16.425,0-29.787-13.363-29.787-29.787v-98.307
				c0-16.425,13.363-29.787,29.787-29.787s29.787,13.363,29.787,29.787v98.307C1370.213,522.987,1356.85,536.349,1340.426,536.349z
				 M1340.426,398.326c-5.475,0-9.929,4.454-9.929,9.929v98.307c0,5.475,4.454,9.929,9.929,9.929s9.929-4.454,9.929-9.929v-98.307
				C1350.355,402.78,1345.901,398.326,1340.426,398.326z"/>
		</g>
		<g id="XMLID_203_">
			<path id="XMLID_196_" fill="#5E3C0B" d="M1380.142,536.349c-16.425,0-29.787-13.363-29.787-29.787v-98.307
				c0-16.425,13.363-29.787,29.787-29.787s29.787,13.363,29.787,29.787v98.307C1409.929,522.987,1396.567,536.349,1380.142,536.349z
				 M1380.142,398.326c-5.475,0-9.929,4.454-9.929,9.929v98.307c0,5.475,4.454,9.929,9.929,9.929s9.929-4.454,9.929-9.929v-98.307
				C1390.071,402.78,1385.617,398.326,1380.142,398.326z"/>
		</g>
		<g id="XMLID_202_">
			<path id="XMLID_193_" fill="#5E3C0B" d="M1419.858,536.349c-16.425,0-29.787-13.363-29.787-29.787v-98.307
				c0-16.425,13.363-29.787,29.787-29.787s29.787,13.363,29.787,29.787v98.307C1449.645,522.987,1436.283,536.349,1419.858,536.349z
				 M1419.858,398.326c-5.475,0-9.929,4.454-9.929,9.929v98.307c0,5.475,4.454,9.929,9.929,9.929s9.929-4.454,9.929-9.929v-98.307
				C1429.787,402.78,1425.333,398.326,1419.858,398.326z"/>
		</g>
		<g id="XMLID_201_">
			<path id="XMLID_185_" fill="#5E3C0B" d="M1459.574,536.349c-16.425,0-29.787-13.363-29.787-29.787v-98.307
				c0-16.425,13.363-29.787,29.787-29.787s29.787,13.363,29.787,29.787v98.307C1489.362,522.987,1475.999,536.349,1459.574,536.349z
				 M1459.574,398.326c-5.475,0-9.929,4.454-9.929,9.929v98.307c0,5.475,4.454,9.929,9.929,9.929s9.929-4.454,9.929-9.929v-98.307
				C1469.504,402.78,1465.05,398.326,1459.574,398.326z"/>
		</g>
	</g>
	<g id="XMLID_251_">
		<path id="XMLID_172_" fill="#5E3C0B" d="M2222.581,2028.494H577.419v-103.246h1645.163L2222.581,2028.494L2222.581,2028.494z
			 M597.277,2008.636h1605.447v-63.53H597.277V2008.636z"/>
	</g>
	<g id="XMLID_250_">
		<path id="XMLID_169_" fill="#5E3C0B" d="M2265.484,2111.881H534.516v-103.245h1730.968V2111.881z M554.374,2092.023h1691.251
			v-63.529H554.374V2092.023z"/>
	</g>
	<g id="XMLID_249_">
		<path id="XMLID_166_" fill="#5E3C0B" d="M2308.386,2195.269H491.613v-103.246h1816.773V2195.269z M511.472,2175.411h1777.057
			v-63.53H511.472V2175.411z"/>
	</g>
	<g id="XMLID_248_">
		<path id="XMLID_122_" fill="#5E3C0B" d="M2351.289,2278.656H448.711v-103.245h1902.577L2351.289,2278.656L2351.289,2278.656z
			 M468.57,2258.798h1862.86v-63.529H468.57V2258.798z"/>
	</g>
	<g id="XMLID_247_">
		<path id="XMLID_117_" fill="#5E3C0B" d="M2394.191,2362.044H405.809v-103.246h1988.382V2362.044z M425.667,2342.186h1948.666
			v-63.53H425.667V2342.186z"/>
	</g>
	<g id="XMLID_246_">
		<path id="XMLID_113_" fill="#5E3C0B" d="M2437.094,2445.432H362.906v-103.246h2074.188V2445.432z M382.764,2425.573h2034.471
			v-63.529H382.764V2425.573z"/>
	</g>
	<g id="XMLID_245_">
		<path id="XMLID_110_" fill="#5E3C0B" d="M2479.996,2528.819H320.004v-103.246h2159.992L2479.996,2528.819L2479.996,2528.819z
			 M339.862,2508.961h2120.276v-63.53H339.862V2508.961z"/>
	</g>
	<g id="XMLID_253_">
		<rect id="XMLID_109_" x="118.156" y="1935.177" fill="#5E3C0B" width="19.858" height="240.284"/>
	</g>
	<g id="XMLID_258_">
		<rect id="XMLID_108_" x="278.436" y="1935.177" fill="#5E3C0B" width="19.858" height="416.937"/>
	</g>
	<g id="XMLID_256_">
		<rect id="XMLID_107_" x="362.906" y="1935.177" fill="#5E3C0B" width="19.858" height="99.023"/>
	</g>
	<g id="XMLID_267_">
		<rect id="XMLID_106_" x="362.906" y="2205.248" fill="#5E3C0B" width="19.858" height="239.924"/>
	</g>
	<g id="XMLID_254_">
		<rect id="XMLID_105_" x="60.567" y="1935.177" fill="#5E3C0B" width="19.858" height="120.142"/>
	</g>
	<g id="XMLID_252_">
		<rect id="XMLID_104_" x="362.906" y="2086.936" fill="#5E3C0B" width="19.858" height="24.418"/>
	</g>
	<g id="XMLID_265_">
		<rect id="XMLID_103_" x="118.156" y="2256.518" fill="#5E3C0B" width="19.858" height="24.418"/>
	</g>
	<g id="XMLID_261_">
		<rect id="XMLID_102_" x="448.711" y="1935.177" fill="#5E3C0B" width="19.858" height="250.163"/>
	</g>
	<g id="XMLID_270_">
		<rect id="XMLID_101_" x="2661.986" y="1935.177" fill="#5E3C0B" width="19.858" height="240.284"/>
	</g>
	<g id="XMLID_269_">
		<rect id="XMLID_100_" x="2501.706" y="1935.177" fill="#5E3C0B" width="19.858" height="416.937"/>
	</g>
	<g id="XMLID_268_">
		<rect id="XMLID_99_" x="2417.235" y="1935.177" fill="#5E3C0B" width="19.858" height="99.023"/>
	</g>
	<g id="XMLID_266_">
		<rect id="XMLID_98_" x="2417.235" y="2205.248" fill="#5E3C0B" width="19.858" height="239.924"/>
	</g>
	<g id="XMLID_264_">
		<rect id="XMLID_97_" x="2719.575" y="1935.177" fill="#5E3C0B" width="19.858" height="120.142"/>
	</g>
	<g id="XMLID_262_">
		<rect id="XMLID_96_" x="2417.235" y="2086.936" fill="#5E3C0B" width="19.858" height="24.418"/>
	</g>
	<g id="XMLID_260_">
		<rect id="XMLID_95_" x="2661.986" y="2256.518" fill="#5E3C0B" width="19.858" height="24.418"/>
	</g>
	<g id="XMLID_255_">
		<rect id="XMLID_94_" x="2331.43" y="1935.176" fill="#5E3C0B" width="19.858" height="250.163"/>
	</g>
	<g id="XMLID_301_">
		<g id="XMLID_277_">
			<polygon id="XMLID_93_" fill="#869603" points="2620.587,2748.135 2589.93,2717.479 2603.972,2703.437 2620.587,2720.052 
				2637.201,2703.437 2651.244,2717.479 			"/>
		</g>
		<g id="XMLID_278_">
			<polygon id="XMLID_92_" fill="#869603" points="2398.662,2748.135 2368.005,2717.479 2382.047,2703.437 2398.662,2720.052 
				2415.277,2703.437 2429.319,2717.479 			"/>
		</g>
		<g id="XMLID_279_">
			<polygon id="XMLID_91_" fill="#869603" points="2176.737,2748.135 2146.08,2717.479 2160.122,2703.437 2176.737,2720.052 
				2193.352,2703.437 2207.394,2717.479 			"/>
		</g>
		<g id="XMLID_280_">
			<polygon id="XMLID_90_" fill="#869603" points="1954.812,2748.135 1924.155,2717.479 1938.198,2703.437 1954.812,2720.052 
				1971.427,2703.437 1985.469,2717.479 			"/>
		</g>
		<g id="XMLID_281_">
			<polygon id="XMLID_89_" fill="#869603" points="1732.887,2748.135 1702.23,2717.479 1716.273,2703.437 1732.887,2720.052 
				1749.502,2703.437 1763.544,2717.479 			"/>
		</g>
		<g id="XMLID_282_">
			<polygon id="XMLID_88_" fill="#869603" points="1510.962,2748.135 1480.305,2717.479 1494.348,2703.437 1510.962,2720.052 
				1527.577,2703.437 1541.619,2717.479 			"/>
		</g>
		<g id="XMLID_283_">
			<polygon id="XMLID_87_" fill="#869603" points="1289.038,2748.135 1258.381,2717.479 1272.423,2703.437 1289.038,2720.052 
				1305.652,2703.437 1319.695,2717.479 			"/>
		</g>
		<g id="XMLID_284_">
			<polygon id="XMLID_86_" fill="#869603" points="1067.113,2748.135 1036.456,2717.479 1050.498,2703.437 1067.113,2720.052 
				1083.727,2703.437 1097.77,2717.479 			"/>
		</g>
		<g id="XMLID_285_">
			<polygon id="XMLID_85_" fill="#869603" points="845.188,2748.135 814.531,2717.479 828.573,2703.437 845.188,2720.052 
				861.802,2703.437 875.845,2717.479 			"/>
		</g>
		<g id="XMLID_286_">
			<polygon id="XMLID_84_" fill="#869603" points="623.263,2748.135 592.606,2717.479 606.648,2703.437 623.263,2720.052 
				639.878,2703.437 653.92,2717.479 			"/>
		</g>
		<g id="XMLID_287_">
			<polygon id="XMLID_83_" fill="#869603" points="401.338,2748.135 370.681,2717.479 384.723,2703.437 401.338,2720.052 
				417.953,2703.437 431.995,2717.479 			"/>
		</g>
		<g id="XMLID_288_">
			<polygon id="XMLID_82_" fill="#869603" points="179.413,2748.135 148.756,2717.479 162.799,2703.437 179.413,2720.052 
				196.028,2703.437 210.07,2717.479 			"/>
		</g>
	</g>
	<g id="XMLID_336_">
		<g id="XMLID_348_">
			<polygon id="XMLID_81_" fill="#869603" points="2509.625,2612.545 2478.967,2581.888 2493.01,2567.846 2509.625,2584.461 
				2526.239,2567.846 2540.281,2581.888 			"/>
		</g>
		<g id="XMLID_347_">
			<polygon id="XMLID_80_" fill="#869603" points="2287.699,2612.545 2257.043,2581.888 2271.085,2567.847 2287.699,2584.461 
				2304.314,2567.846 2318.356,2581.888 			"/>
		</g>
		<g id="XMLID_346_">
			<polygon id="XMLID_79_" fill="#869603" points="2065.775,2612.545 2035.118,2581.888 2049.16,2567.846 2065.775,2584.461 
				2082.389,2567.846 2096.432,2581.888 			"/>
		</g>
		<g id="XMLID_345_">
			<polygon id="XMLID_72_" fill="#869603" points="1843.85,2612.545 1813.193,2581.888 1827.235,2567.846 1843.85,2584.461 
				1860.464,2567.846 1874.507,2581.888 			"/>
		</g>
		<g id="XMLID_344_">
			<polygon id="XMLID_61_" fill="#869603" points="1621.925,2612.545 1591.268,2581.888 1605.31,2567.846 1621.925,2584.461 
				1638.539,2567.847 1652.582,2581.888 			"/>
		</g>
		<g id="XMLID_343_">
			<polygon id="XMLID_60_" fill="#869603" points="1400,2612.545 1369.343,2581.888 1383.385,2567.846 1400,2584.461 
				1416.615,2567.846 1430.657,2581.888 			"/>
		</g>
		<g id="XMLID_342_">
			<polygon id="XMLID_59_" fill="#869603" points="1178.075,2612.545 1147.418,2581.888 1161.461,2567.847 1178.075,2584.461 
				1194.69,2567.846 1208.732,2581.888 			"/>
		</g>
		<g id="XMLID_341_">
			<polygon id="XMLID_58_" fill="#869603" points="956.15,2612.545 925.493,2581.888 939.536,2567.846 956.15,2584.461 
				972.765,2567.846 986.807,2581.888 			"/>
		</g>
		<g id="XMLID_340_">
			<polygon id="XMLID_57_" fill="#869603" points="734.225,2612.545 703.568,2581.888 717.61,2567.846 734.225,2584.461 
				750.84,2567.846 764.882,2581.888 			"/>
		</g>
		<g id="XMLID_339_">
			<polygon id="XMLID_56_" fill="#869603" points="512.301,2612.545 481.644,2581.888 495.686,2567.846 512.301,2584.461 
				528.915,2567.847 542.957,2581.888 			"/>
		</g>
		<g id="XMLID_338_">
			<polygon id="XMLID_55_" fill="#869603" points="290.376,2612.545 259.719,2581.888 273.761,2567.846 290.376,2584.461 
				306.99,2567.846 321.033,2581.888 			"/>
		</g>
	</g>
</g>
<g>
	<g>
		<g id="XMLID_178_">
			<path id="XMLID_133_" fill="#99691A" d="M1413.475,689.437h-26.951c-9.009,0-16.312,7.303-16.312,16.312v28.571
				c0,9.009,7.303,16.312,16.312,16.312h26.951c9.009,0,16.312-7.303,16.312-16.312v-28.571
				C1429.787,696.74,1422.484,689.437,1413.475,689.437z"/>
		</g>
		<g id="XMLID_206_">
			<path id="XMLID_132_" fill="#B69054" d="M1413.591,689.437H1400v61.194h13.591c8.945,0,16.196-7.251,16.196-16.196v-28.802
				C1429.787,696.688,1422.536,689.437,1413.591,689.437z"/>
		</g>
		<g id="XMLID_235_">
			<path id="XMLID_214_" fill="#5E3C0B" d="M1413.591,760.56h-27.182c-14.405,0-26.125-11.72-26.125-26.125v-28.802
				c0-14.405,11.72-26.125,26.125-26.125h27.182c14.405,0,26.125,11.72,26.125,26.125v28.802
				C1439.716,748.841,1427.996,760.56,1413.591,760.56z M1386.409,699.366c-3.456,0-6.267,2.811-6.267,6.267v28.802
				c0,3.456,2.811,6.267,6.267,6.267h27.182c3.456,0,6.267-2.811,6.267-6.267v-28.802c0-3.456-2.811-6.267-6.267-6.267H1386.409z"/>
		</g>
		<g id="XMLID_177_">
			<g id="XMLID_179_">
				<path id="XMLID_777_" fill="#F0D18A" d="M1314.663,936.796c-47.055-47.055-47.055-123.62,0-170.675s123.62-47.055,170.675,0
					s47.055,123.62,0,170.675C1438.282,983.851,1361.718,983.851,1314.663,936.796z M1457.254,794.205
					c-31.57-31.57-82.938-31.57-114.507,0c-31.57,31.57-31.57,82.938,0,114.507c31.57,31.57,82.938,31.57,114.507,0
					S1488.823,825.774,1457.254,794.205z"/>
			</g>
		</g>
		<g id="XMLID_237_">
			<path id="XMLID_119_" fill="#F8E8C6" d="M1456.71,908.169c-31.57,31.57-82.938,31.57-114.507,0l-28.084,28.084
				c47.055,47.055,123.62,47.055,170.675,0s47.055-123.62,0-170.675l-28.084,28.084
				C1488.28,825.231,1488.28,876.599,1456.71,908.169z"/>
		</g>
		<g id="XMLID_205_">
			<g id="XMLID_207_">
				<path id="XMLID_187_" fill="#5E3C0B" d="M1400,982.073c-72.021,0-130.614-58.594-130.614-130.615S1327.979,720.844,1400,720.844
					s130.614,58.593,130.614,130.614S1472.021,982.073,1400,982.073z M1400,740.702c-61.071,0-110.756,49.685-110.756,110.756
					S1338.929,962.215,1400,962.215s110.756-49.685,110.756-110.757C1510.756,790.387,1461.071,740.702,1400,740.702z M1400,942.357
					c-50.121,0-90.898-40.777-90.898-90.898c0-50.121,40.777-90.898,90.898-90.898s90.898,40.777,90.898,90.898
					S1450.121,942.357,1400,942.357z M1400,780.419c-39.171,0-71.04,31.868-71.04,71.04s31.869,71.04,71.04,71.04
					s71.04-31.869,71.04-71.04C1471.04,812.287,1439.171,780.419,1400,780.419z"/>
			</g>
		</g>
	</g>
	<g id="Layer_5" display="none">
		<path display="inline" fill="#E7D2B3" stroke="#DFB364" stroke-width="10" stroke-miterlimit="10" d="M1640.357,1091.698
			c40.664-34.485,57.425-81.548,37.437-105.118s-69.157-14.722-109.821,19.763c-14.866,12.607-26.538,26.895-34.387,41.102
			c-13.621,24.654-15.731,49.063-3.05,64.016c14.257,16.812,43.358,17.131,73.631,3.419
			C1616.336,1109.368,1628.696,1101.587,1640.357,1091.698z"/>
		<path display="inline" fill="#E7D2B3" stroke="#DFB364" stroke-width="10" stroke-miterlimit="10" d="M1558.521,992.29"/>
		
			<linearGradient id="SVGID_1_" gradientUnits="userSpaceOnUse" x1="1541.2213" y1="-920.7333" x2="1676.1267" y2="-920.7333" gradientTransform="matrix(1 0 0 1 16.8 1959.3202)">
			<stop  offset="0" style="stop-color:#FFE63E"/>
			<stop  offset="1" style="stop-color:#FBF297"/>
		</linearGradient>
		<path display="inline" fill="url(#SVGID_1_)" stroke="#F7C800" stroke-width="6" stroke-miterlimit="10" d="M1632.153,1107.507
			c8.771-2.565,73.125-46.698,58.666-102.07c-8.04-32.627-35.54-59.127-130.366-4.309
			C1543.778,1025.309,1617.812,1111.701,1632.153,1107.507z"/>
		<path display="inline" fill="#E7D2B3" stroke="#DFB364" stroke-width="10" stroke-miterlimit="10" d="M1171.672,1091.267
			c-40.664-34.485-57.425-81.548-37.437-105.118c19.989-23.57,69.157-14.722,109.822,19.763
			c14.866,12.607,26.538,26.895,34.387,41.102c13.621,24.654,15.731,49.063,3.05,64.016c-14.257,16.812-43.358,17.131-73.631,3.419
			C1195.693,1108.936,1183.333,1101.156,1171.672,1091.267z"/>
		<path display="inline" fill="#E7D2B3" stroke="#DFB364" stroke-width="10" stroke-miterlimit="10" d="M1253.508,991.858"/>
		
			<linearGradient id="SVGID_2_" gradientUnits="userSpaceOnUse" x1="5740.2642" y1="-921.1653" x2="5875.1694" y2="-921.1653" gradientTransform="matrix(-1 0 0 1 6995.272 1959.3202)">
			<stop  offset="0" style="stop-color:#FFE63E"/>
			<stop  offset="1" style="stop-color:#FBF297"/>
		</linearGradient>
		<path display="inline" fill="url(#SVGID_2_)" stroke="#F7C800" stroke-width="6" stroke-miterlimit="10" d="M1180.876,1107.075
			c-8.771-2.565-73.125-46.698-58.666-102.07c8.04-32.627,35.54-59.127,130.366-4.309
			C1269.251,1024.878,1195.217,1111.27,1180.876,1107.075z"/>
	</g>
	<g id="Layer_3">
		<path fill="#E31019" stroke="#BE1823" stroke-width="15" stroke-miterlimit="10" d="M1606.015,1303.202
			c0,197.718-400,197.718-400,0s89.543-358,200-358C1516.471,945.202,1606.015,1105.484,1606.015,1303.202z"/>
		<path fill="#FFFFFF" stroke="#BE1823" stroke-width="15" stroke-miterlimit="10" d="M1334.879,972.087
			c25.113,8.944,73.383,176.913,73.383,176.913s10.491-134.029,64.086-181.115"/>
	</g>
	<g id="Layer_4" display="none">
		
			<linearGradient id="SVGID_3_" gradientUnits="userSpaceOnUse" x1="1265.2899" y1="-584.4731" x2="1265.2899" y2="-479.4748" gradientTransform="matrix(1 0 0 1 16.8 1959.3202)">
			<stop  offset="0" style="stop-color:#FFFFFF"/>
			<stop  offset="1" style="stop-color:#2B2523"/>
		</linearGradient>
		<path display="inline" fill="url(#SVGID_3_)" stroke="#2B2523" stroke-width="10" stroke-miterlimit="10" d="M1350.142,1449.092
			c0-41.004-30.468-74.245-68.052-74.245s-68.052,33.241-68.052,74.245S1350.142,1490.097,1350.142,1449.092z"/>
		
			<linearGradient id="SVGID_4_" gradientUnits="userSpaceOnUse" x1="1510.48" y1="-582.5372" x2="1510.48" y2="-477.5388" gradientTransform="matrix(1 0 0 1 16.8 1959.3202)">
			<stop  offset="0" style="stop-color:#FFFFFF"/>
			<stop  offset="1" style="stop-color:#2B2523"/>
		</linearGradient>
		<path display="inline" fill="url(#SVGID_4_)" stroke="#2B2523" stroke-width="10" stroke-miterlimit="10" d="M1595.332,1451.028
			c0-41.004-30.468-74.245-68.052-74.245s-68.052,33.241-68.052,74.245S1595.332,1492.033,1595.332,1451.028z"/>
	</g>
	<g id="Layer_2">
		<path fill="#E7D2B3" stroke="#DFB364" stroke-width="10" stroke-miterlimit="10" d="M1554.701,830.741
			c0-85.787-69.544-155.332-155.332-155.332c-51.023,0-96.301,24.601-124.618,62.589c-19.293,25.882-30.714,57.979-30.714,92.743
			c0,85.787,69.544,155.332,155.332,155.332S1554.701,916.529,1554.701,830.741z"/>
		
			<ellipse fill="#E31019" stroke="#BE1823" stroke-width="15" stroke-miterlimit="10" cx="1406.015" cy="755.596" rx="223.155" ry="50.392"/>
		<path fill="#E31019" stroke="#BE1823" stroke-width="15" stroke-miterlimit="10" d="M1516.658,731.913
			c0-49.976-52.56-90.49-117.396-90.49s-117.396,40.514-117.396,90.49C1281.866,781.89,1516.658,781.89,1516.658,731.913z"/>
		<path fill="#FFFFFF" stroke="#FFFFFF" stroke-width="6" stroke-miterlimit="10" d="M1472.348,750.631
			c0,0,8.652-126.631,94.652-166.631S1472.348,750.631,1472.348,750.631z"/>
		<path fill="none" stroke="#2B2523" stroke-width="2" stroke-miterlimit="10" d="M1470.776,755.596
			c10.059-33.694,33.813-93.142,67.408-136.192c15.819-20.272,33.82-36.908,53.601-45.507"/>
		<path fill="none" stroke="#2B2523" stroke-width="2" stroke-miterlimit="10" d="M1544.823,611.597c0,0,11.462-9.103,32.665-4.103"
			/>
		<path fill="none" stroke="#2B2523" stroke-width="2" stroke-miterlimit="10" d="M1526.406,635.455c0,0,13.279-9.103,37.844-4.103"
			/>
		<path fill="none" stroke="#2B2523" stroke-width="2" stroke-miterlimit="10" d="M1512.564,657.778c0,0,13.135-8.437,37.433-3.803"
			/>
		
			<line fill="none" stroke="#DFB364" stroke-width="10" stroke-miterlimit="10" x1="1318.09" y1="827.901" x2="1370.879" y2="870.561"/>
		
			<line fill="none" stroke="#DFB364" stroke-width="10" stroke-miterlimit="10" x1="1316.581" y1="870.561" x2="1368.596" y2="827.901"/>
		
			<line fill="none" stroke="#DFB364" stroke-width="10" stroke-miterlimit="10" x1="1424.005" y1="827.901" x2="1476.794" y2="870.561"/>
		
			<line fill="none" stroke="#DFB364" stroke-width="10" stroke-miterlimit="10" x1="1422.497" y1="870.561" x2="1474.512" y2="827.901"/>
	</g>
</g>
</svg>
